G75*
%MOIN*%
%OFA0B0*%
%FSLAX24Y24*%
%IPPOS*%
%LPD*%
%AMOC8*
5,1,8,0,0,1.08239X$1,22.5*
%
%ADD10C,0.0480*%
%ADD11C,0.2049*%
%ADD12C,0.0789*%
%ADD13C,0.0680*%
%ADD14OC8,0.0560*%
%ADD15C,0.0560*%
D10*
X014364Y006369D03*
X027938Y006369D03*
X027938Y022117D03*
X014364Y022117D03*
D11*
X003663Y002100D03*
X002844Y004781D03*
X030009Y004781D03*
X046163Y002100D03*
X030009Y022104D03*
X046163Y027600D03*
X003663Y027600D03*
X002844Y022104D03*
D12*
X005974Y026746D02*
X005974Y027454D01*
X007352Y027454D02*
X007352Y026746D01*
X040974Y026746D02*
X040974Y027454D01*
X042352Y027454D02*
X042352Y026746D01*
D13*
X043663Y015600D03*
X020663Y002100D03*
X012913Y002100D03*
X007413Y002100D03*
D14*
X040913Y019100D03*
X041913Y019100D03*
X041913Y020100D03*
X041913Y022600D03*
X040913Y022600D03*
X041913Y023600D03*
D15*
X036163Y027860D02*
X036163Y028340D01*
X035163Y028340D02*
X035163Y027860D01*
X034163Y027860D02*
X034163Y028340D01*
X033163Y028340D02*
X033163Y027860D01*
X032163Y027860D02*
X032163Y028340D01*
X031163Y028340D02*
X031163Y027860D01*
M02*
