G75*
%MOIN*%
%OFA0B0*%
%FSLAX24Y24*%
%IPPOS*%
%LPD*%
%AMOC8*
5,1,8,0,0,1.08239X$1,22.5*
%
%ADD10R,0.0260X0.0650*%
%ADD11C,0.0480*%
%ADD12C,0.2049*%
%ADD13R,0.0474X0.0237*%
%ADD14R,0.0230X0.0380*%
%ADD15R,0.0230X0.0480*%
%ADD16C,0.0789*%
%ADD17R,0.0500X0.0430*%
%ADD18R,0.0430X0.0500*%
%ADD19R,0.0297X0.0474*%
%ADD20R,0.0460X0.0680*%
%ADD21R,0.0820X0.0560*%
%ADD22C,0.0680*%
%ADD23OC8,0.0560*%
%ADD24R,0.0630X0.0217*%
%ADD25R,0.0690X0.0316*%
%ADD26C,0.0560*%
D10*
X015009Y004354D03*
X015324Y004354D03*
X015639Y004354D03*
X015954Y004354D03*
X016269Y004354D03*
X016584Y004354D03*
X016899Y004354D03*
X017214Y004354D03*
X017529Y004354D03*
X017844Y004354D03*
X018159Y004354D03*
X018474Y004354D03*
X018789Y004354D03*
X019104Y004354D03*
X019419Y004354D03*
X019734Y004354D03*
X020049Y004354D03*
X020364Y004354D03*
X020679Y004354D03*
X020994Y004354D03*
X021309Y004354D03*
X021624Y004354D03*
X021939Y004354D03*
X022254Y004354D03*
X022569Y004354D03*
X022883Y004354D03*
X023198Y004354D03*
X023513Y004354D03*
X023828Y004354D03*
X024143Y004354D03*
X024458Y004354D03*
X024773Y004354D03*
X025088Y004354D03*
X025403Y004354D03*
X025718Y004354D03*
X026033Y004354D03*
X026348Y004354D03*
X026663Y004354D03*
X026978Y004354D03*
X027293Y004354D03*
X027293Y006783D03*
X026978Y006783D03*
X026663Y006783D03*
X026348Y006783D03*
X026033Y006783D03*
X025718Y006783D03*
X025403Y006783D03*
X025088Y006783D03*
X024773Y006783D03*
X024458Y006783D03*
X024143Y006783D03*
X023828Y006783D03*
X023513Y006783D03*
X023198Y006783D03*
X022883Y006783D03*
X022569Y006783D03*
X022254Y006783D03*
X021939Y006783D03*
X021624Y006783D03*
X021309Y006783D03*
X020994Y006783D03*
X020679Y006783D03*
X020364Y006783D03*
X020049Y006783D03*
X019734Y006783D03*
X019419Y006783D03*
X019104Y006783D03*
X018789Y006783D03*
X018474Y006783D03*
X018159Y006783D03*
X017844Y006783D03*
X017529Y006783D03*
X017214Y006783D03*
X016899Y006783D03*
X016584Y006783D03*
X016269Y006783D03*
X015954Y006783D03*
X015639Y006783D03*
X015324Y006783D03*
X015009Y006783D03*
X015009Y020102D03*
X015324Y020102D03*
X015639Y020102D03*
X015954Y020102D03*
X016269Y020102D03*
X016584Y020102D03*
X016899Y020102D03*
X017214Y020102D03*
X017529Y020102D03*
X017844Y020102D03*
X018159Y020102D03*
X018474Y020102D03*
X018789Y020102D03*
X019104Y020102D03*
X019419Y020102D03*
X019734Y020102D03*
X020049Y020102D03*
X020364Y020102D03*
X020679Y020102D03*
X020994Y020102D03*
X021309Y020102D03*
X021624Y020102D03*
X021939Y020102D03*
X022254Y020102D03*
X022569Y020102D03*
X022883Y020102D03*
X023198Y020102D03*
X023513Y020102D03*
X023828Y020102D03*
X024143Y020102D03*
X024458Y020102D03*
X024773Y020102D03*
X025088Y020102D03*
X025403Y020102D03*
X025718Y020102D03*
X026033Y020102D03*
X026348Y020102D03*
X026663Y020102D03*
X026978Y020102D03*
X027293Y020102D03*
X027293Y022531D03*
X026978Y022531D03*
X026663Y022531D03*
X026348Y022531D03*
X026033Y022531D03*
X025718Y022531D03*
X025403Y022531D03*
X025088Y022531D03*
X024773Y022531D03*
X024458Y022531D03*
X024143Y022531D03*
X023828Y022531D03*
X023513Y022531D03*
X023198Y022531D03*
X022883Y022531D03*
X022569Y022531D03*
X022254Y022531D03*
X021939Y022531D03*
X021624Y022531D03*
X021309Y022531D03*
X020994Y022531D03*
X020679Y022531D03*
X020364Y022531D03*
X020049Y022531D03*
X019734Y022531D03*
X019419Y022531D03*
X019104Y022531D03*
X018789Y022531D03*
X018474Y022531D03*
X018159Y022531D03*
X017844Y022531D03*
X017529Y022531D03*
X017214Y022531D03*
X016899Y022531D03*
X016584Y022531D03*
X016269Y022531D03*
X015954Y022531D03*
X015639Y022531D03*
X015324Y022531D03*
X015009Y022531D03*
D11*
X014364Y022117D03*
X027938Y022117D03*
X027938Y006369D03*
X014364Y006369D03*
D12*
X003663Y002100D03*
X002844Y004781D03*
X030009Y004781D03*
X046163Y002100D03*
X030009Y022104D03*
X046163Y027600D03*
X003663Y027600D03*
X002844Y022104D03*
D13*
X032651Y014734D03*
X032651Y014478D03*
X032651Y014222D03*
X032651Y013966D03*
X033675Y013966D03*
X033675Y014222D03*
X033675Y014478D03*
X033675Y014734D03*
D14*
X019288Y027620D03*
X019038Y027620D03*
X018788Y027620D03*
X018538Y027620D03*
X018288Y027620D03*
X018038Y027620D03*
D15*
X018038Y027170D03*
X018288Y027170D03*
X018538Y027170D03*
X018788Y027170D03*
X019038Y027170D03*
X019288Y027170D03*
D16*
X007352Y027454D02*
X007352Y026746D01*
X005974Y026746D02*
X005974Y027454D01*
X040974Y027454D02*
X040974Y026746D01*
X042352Y026746D02*
X042352Y027454D01*
D17*
X034413Y024440D03*
X034413Y023760D03*
X033163Y023760D03*
X031913Y023760D03*
X031913Y024440D03*
X033163Y024440D03*
X023413Y024690D03*
X023413Y024010D03*
X022663Y026010D03*
X022663Y026690D03*
X015913Y027010D03*
X015913Y027690D03*
X039913Y013190D03*
X039913Y012510D03*
X041163Y012510D03*
X041163Y013190D03*
X042413Y013190D03*
X042413Y012510D03*
X043663Y012510D03*
X043663Y013190D03*
X044913Y013190D03*
X044913Y012510D03*
X046163Y012510D03*
X046163Y013190D03*
D18*
X033503Y012850D03*
X032823Y012850D03*
X032823Y019600D03*
X033503Y019600D03*
X037073Y022100D03*
X037753Y022100D03*
X012503Y024100D03*
X011823Y024100D03*
X010503Y025100D03*
X009823Y025100D03*
X009823Y026600D03*
X010503Y026600D03*
X010503Y027600D03*
X009823Y027600D03*
D19*
X011789Y026631D03*
X012163Y026631D03*
X012537Y026631D03*
X012537Y025569D03*
X012163Y025569D03*
X011789Y025569D03*
X024289Y025569D03*
X025037Y025569D03*
X025037Y026631D03*
X024663Y026631D03*
X024289Y026631D03*
D20*
X024003Y027850D03*
X024823Y027850D03*
X012573Y027600D03*
X011753Y027600D03*
D21*
X013663Y026250D03*
X013663Y024950D03*
X027663Y025200D03*
X027663Y026500D03*
X036163Y013750D03*
X036163Y012450D03*
X038163Y012450D03*
X038163Y013750D03*
X013913Y013750D03*
X013913Y012450D03*
D22*
X012913Y002100D03*
X007413Y002100D03*
X020663Y002100D03*
X043663Y015600D03*
D23*
X041913Y019100D03*
X040913Y019100D03*
X041913Y020100D03*
X041913Y022600D03*
X040913Y022600D03*
X041913Y023600D03*
D24*
X034275Y022245D03*
X034275Y021989D03*
X034275Y021733D03*
X034275Y021477D03*
X034275Y021221D03*
X034275Y020965D03*
X034275Y020709D03*
X034275Y020454D03*
X032055Y020454D03*
X032055Y020709D03*
X032055Y020965D03*
X032055Y021221D03*
X032055Y021477D03*
X032055Y021733D03*
X032055Y021989D03*
X032055Y022245D03*
X032055Y017995D03*
X032055Y017739D03*
X032055Y017483D03*
X032055Y017227D03*
X032055Y016971D03*
X032055Y016715D03*
X032055Y016459D03*
X032055Y016204D03*
X034275Y016204D03*
X034275Y016459D03*
X034275Y016715D03*
X034275Y016971D03*
X034275Y017227D03*
X034275Y017483D03*
X034275Y017739D03*
X034275Y017995D03*
X039055Y016745D03*
X039055Y016489D03*
X039055Y016233D03*
X039055Y015977D03*
X039055Y015721D03*
X039055Y015465D03*
X039055Y015209D03*
X039055Y014954D03*
X041275Y014954D03*
X041275Y015209D03*
X041275Y015465D03*
X041275Y015721D03*
X041275Y015977D03*
X041275Y016233D03*
X041275Y016489D03*
X041275Y016745D03*
D25*
X038476Y017600D03*
X038476Y018100D03*
X038476Y018600D03*
X038476Y019100D03*
X038476Y019600D03*
X038476Y020100D03*
X038476Y020600D03*
X036350Y020600D03*
X036350Y020100D03*
X036350Y019600D03*
X036350Y019100D03*
X036350Y018600D03*
X036350Y018100D03*
X036350Y017600D03*
D26*
X036163Y027860D02*
X036163Y028340D01*
X035163Y028340D02*
X035163Y027860D01*
X034163Y027860D02*
X034163Y028340D01*
X033163Y028340D02*
X033163Y027860D01*
X032163Y027860D02*
X032163Y028340D01*
X031163Y028340D02*
X031163Y027860D01*
M02*
