G75*
%MOIN*%
%OFA0B0*%
%FSLAX24Y24*%
%IPPOS*%
%LPD*%
%AMOC8*
5,1,8,0,0,1.08239X$1,22.5*
%
%ADD10C,0.0000*%
D10*
X001663Y000100D02*
X001663Y029600D01*
X048163Y029600D01*
X048163Y000100D01*
X001663Y000100D01*
X014164Y006369D02*
X014166Y006397D01*
X014172Y006424D01*
X014181Y006450D01*
X014194Y006475D01*
X014211Y006498D01*
X014230Y006518D01*
X014252Y006535D01*
X014276Y006549D01*
X014302Y006559D01*
X014329Y006566D01*
X014357Y006569D01*
X014385Y006568D01*
X014412Y006563D01*
X014439Y006554D01*
X014464Y006542D01*
X014487Y006527D01*
X014508Y006508D01*
X014526Y006487D01*
X014541Y006463D01*
X014552Y006437D01*
X014560Y006411D01*
X014564Y006383D01*
X014564Y006355D01*
X014560Y006327D01*
X014552Y006301D01*
X014541Y006275D01*
X014526Y006251D01*
X014508Y006230D01*
X014487Y006211D01*
X014464Y006196D01*
X014439Y006184D01*
X014412Y006175D01*
X014385Y006170D01*
X014357Y006169D01*
X014329Y006172D01*
X014302Y006179D01*
X014276Y006189D01*
X014252Y006203D01*
X014230Y006220D01*
X014211Y006240D01*
X014194Y006263D01*
X014181Y006288D01*
X014172Y006314D01*
X014166Y006341D01*
X014164Y006369D01*
X027738Y006369D02*
X027740Y006397D01*
X027746Y006424D01*
X027755Y006450D01*
X027768Y006475D01*
X027785Y006498D01*
X027804Y006518D01*
X027826Y006535D01*
X027850Y006549D01*
X027876Y006559D01*
X027903Y006566D01*
X027931Y006569D01*
X027959Y006568D01*
X027986Y006563D01*
X028013Y006554D01*
X028038Y006542D01*
X028061Y006527D01*
X028082Y006508D01*
X028100Y006487D01*
X028115Y006463D01*
X028126Y006437D01*
X028134Y006411D01*
X028138Y006383D01*
X028138Y006355D01*
X028134Y006327D01*
X028126Y006301D01*
X028115Y006275D01*
X028100Y006251D01*
X028082Y006230D01*
X028061Y006211D01*
X028038Y006196D01*
X028013Y006184D01*
X027986Y006175D01*
X027959Y006170D01*
X027931Y006169D01*
X027903Y006172D01*
X027876Y006179D01*
X027850Y006189D01*
X027826Y006203D01*
X027804Y006220D01*
X027785Y006240D01*
X027768Y006263D01*
X027755Y006288D01*
X027746Y006314D01*
X027740Y006341D01*
X027738Y006369D01*
X027738Y022117D02*
X027740Y022145D01*
X027746Y022172D01*
X027755Y022198D01*
X027768Y022223D01*
X027785Y022246D01*
X027804Y022266D01*
X027826Y022283D01*
X027850Y022297D01*
X027876Y022307D01*
X027903Y022314D01*
X027931Y022317D01*
X027959Y022316D01*
X027986Y022311D01*
X028013Y022302D01*
X028038Y022290D01*
X028061Y022275D01*
X028082Y022256D01*
X028100Y022235D01*
X028115Y022211D01*
X028126Y022185D01*
X028134Y022159D01*
X028138Y022131D01*
X028138Y022103D01*
X028134Y022075D01*
X028126Y022049D01*
X028115Y022023D01*
X028100Y021999D01*
X028082Y021978D01*
X028061Y021959D01*
X028038Y021944D01*
X028013Y021932D01*
X027986Y021923D01*
X027959Y021918D01*
X027931Y021917D01*
X027903Y021920D01*
X027876Y021927D01*
X027850Y021937D01*
X027826Y021951D01*
X027804Y021968D01*
X027785Y021988D01*
X027768Y022011D01*
X027755Y022036D01*
X027746Y022062D01*
X027740Y022089D01*
X027738Y022117D01*
X014164Y022117D02*
X014166Y022145D01*
X014172Y022172D01*
X014181Y022198D01*
X014194Y022223D01*
X014211Y022246D01*
X014230Y022266D01*
X014252Y022283D01*
X014276Y022297D01*
X014302Y022307D01*
X014329Y022314D01*
X014357Y022317D01*
X014385Y022316D01*
X014412Y022311D01*
X014439Y022302D01*
X014464Y022290D01*
X014487Y022275D01*
X014508Y022256D01*
X014526Y022235D01*
X014541Y022211D01*
X014552Y022185D01*
X014560Y022159D01*
X014564Y022131D01*
X014564Y022103D01*
X014560Y022075D01*
X014552Y022049D01*
X014541Y022023D01*
X014526Y021999D01*
X014508Y021978D01*
X014487Y021959D01*
X014464Y021944D01*
X014439Y021932D01*
X014412Y021923D01*
X014385Y021918D01*
X014357Y021917D01*
X014329Y021920D01*
X014302Y021927D01*
X014276Y021937D01*
X014252Y021951D01*
X014230Y021968D01*
X014211Y021988D01*
X014194Y022011D01*
X014181Y022036D01*
X014172Y022062D01*
X014166Y022089D01*
X014164Y022117D01*
M02*
