%
M48
M72
T01C0.0100
T02C0.0320
T03C0.0400
T04C0.0472
T05C0.0984
T06C0.1260
%
T01
X18223Y5380
X18623Y5380
X18703Y6260
X21663Y4900
X23263Y5940
X24383Y6260
X23583Y4900
X27583Y4740
X29343Y8660
X32303Y13380
X32783Y13380
X33663Y13540
X32223Y14500
X32303Y15060
X33983Y15860
X34783Y16500
X33743Y17220
X33423Y16740
X32543Y16820
X33743Y17780
X34783Y18340
X35103Y18020
X35103Y17540
X32303Y18340
X32063Y20100
X33503Y20020
X34303Y20100
X37423Y19780
X39023Y18100
X38543Y16740
X37743Y15940
X39583Y16260
X40783Y16420
X41263Y17060
X42223Y13620
X43583Y13620
X42783Y12100
X40703Y12100
X39903Y12100
X46143Y12100
X28703Y18740
X27663Y22660
X25423Y25620
X19903Y23700
X19743Y23300
X18783Y23060
X18463Y23540
X18783Y23780
X18463Y24020
X19103Y24900
X17983Y26740
X19663Y27300
X19663Y27700
X18783Y28100
X17983Y28020
X13183Y24100
X11263Y22660
X17503Y23060
X20063Y22020
X14463Y14180
X32943Y22980
T02
X40913Y22600
X41913Y22600
X41913Y23600
X41913Y20100
X41913Y19100
X40913Y19100
X36163Y28100
X35163Y28100
X34163Y28100
X33163Y28100
X32163Y28100
X31163Y28100
T03
X27938Y22117
X14364Y22117
X14364Y6369
X12913Y2100
X7413Y2100
X20663Y2100
X27938Y6369
X43663Y15600
T04
X42352Y27100
X40974Y27100
X7352Y27100
X5974Y27100
T05
X2844Y22104
X30009Y22104
X30009Y4781
X2844Y4781
T06
X3663Y2100
X3663Y27600
X46163Y27600
X46163Y2100
M30
